<?xml version="1.0" encoding="utf-8"?>
<!-- Generator: Adobe Illustrator 28.7.1, SVG Export Plug-In . SVG Version: 9.03 Build 54978)  -->
<svg version="1.0" id="Layer_1" xmlns="http://www.w3.org/2000/svg" xmlns:xlink="http://www.w3.org/1999/xlink" x="0px" y="0px"
	 viewBox="0 0 720 209.28" style="enable-background:new 0 0 720 209.28;" xml:space="preserve">
<style type="text/css">
	.st0{fill:#FFFFFF;}
	.st1{fill:#B4923E;}
</style>
<g>
	<g>
		<path class="st0" d="M54.94,162.26c-1.98,8.06-8.98,13.41-17.23,13.41c-10.69,0-17.97-8.52-17.97-17.74
			c0-8.71,6.73-17.64,17.87-17.64c10.69,0,16.4,8.25,17.32,13.59h-9.12c-0.97-2.53-3.55-5.94-8.25-5.94c-5.85,0-9.12,5.11-9.12,9.95
			c0,5.16,3.5,10.13,9.17,10.13c5.44,0,7.65-4.56,8.2-5.76H54.94z"/>
		<path class="st0" d="M57.76,140.93h19.3v7.65h-10.6v5.3h10.27v7.65H66.47v5.85h10.6v7.65h-19.3V140.93z"/>
		<path class="st0" d="M79.86,140.93h12.53c3.5,0,6.31,0.78,8.25,2.3c1.98,1.47,3.04,3.73,3.04,6.63c0,2.63-1.2,5.3-3.96,6.86
			c5.48,1.93,5.62,6.5,5.62,7.92c0,2.72-1.06,5.71-3.13,7.42c-3.13,2.63-5.39,2.95-11.15,2.95H79.86V140.93z M88.57,153.87h3.09
			c0.6,0,1.52,0,2.3-0.32c0.78-0.37,1.38-1.06,1.38-2.4c0-1.29-0.6-1.93-1.34-2.26s-1.66-0.32-2.35-0.32h-3.09V153.87z
			 M88.57,167.37h4.1c0.55,0,1.66,0,2.58-0.41c0.97-0.41,1.75-1.24,1.75-2.86c0-1.47-0.74-2.21-1.66-2.58
			c-0.88-0.37-1.98-0.37-2.67-0.37h-4.1V167.37z"/>
		<path class="st0" d="M107.82,140.93h8.71v26.44h10.09v7.65h-18.8V140.93z"/>
	</g>
	<path class="st1" d="M73.18,28.92c-26.82,0-48.56,21.74-48.56,48.56s21.74,48.56,48.56,48.56s48.56-21.74,48.56-48.56
		S100,28.92,73.18,28.92z M103.61,51.85c-2.02-0.85-4.17-1.52-6.43-2c-3.59-0.77-7.48-1.06-11.54-0.89
		c-4.18,0.18-8.5,0.86-12.81,2.01c-0.04-0.75-0.03-1.54,0.04-2.38c0.23-3.03,1.11-6.57,2.68-10.84
		C86.8,38.42,96.79,43.76,103.61,51.85z M73.18,37.69c0.01,0,0.02,0,0.03,0c-2.02,5.64-2.86,10.19-2.57,13.91
		c-2.87,0.87-5.73,1.94-8.54,3.2c-1.28-4.8-2.32-9.65-3.1-14.5C63.4,38.61,68.18,37.69,73.18,37.69z M56.88,41.17
		c0.8,4.88,1.86,9.75,3.16,14.58c-2.61,1.27-5.11,2.68-7.47,4.22c-2.39-2.5-5.97-4.72-10.91-6.79
		C45.65,48.03,50.87,43.87,56.88,41.17z M33.39,77.48c0-8.32,2.56-16.05,6.93-22.44c3.51,1.44,6.28,2.92,8.41,4.52
		c0.73,0.55,1.39,1.11,1.97,1.68c-3.34,2.33-6.38,4.92-9.02,7.69c-2.81,2.94-5.14,6.06-6.93,9.27c-0.45,0.8-0.86,1.6-1.23,2.41
		C33.43,79.58,33.39,78.53,33.39,77.48z M44.38,104.93c-5.14-5.39-8.78-12.23-10.26-19.83c0.65-1.96,1.51-3.9,2.57-5.81
		c1.7-3.04,3.92-6.01,6.59-8.81c2.59-2.72,5.58-5.25,8.86-7.53c0.44,0.62,0.8,1.25,1.09,1.91c0.98,2.23,1.11,4.76,0.41,7.96
		c-0.66,3.01-1.99,6.35-3.41,9.89c-2.18,5.46-4.65,11.65-5.56,18.72C44.53,102.59,44.43,103.76,44.38,104.93z M46.57,106.06
		c0.03-1.45,0.14-2.9,0.33-4.36c0.87-6.79,3.29-12.84,5.42-18.18c2.95-7.39,5.51-13.77,2.97-19.57c-0.34-0.78-0.77-1.53-1.28-2.25
		c2.12-1.36,4.34-2.62,6.65-3.77c2.82,9.84,6.65,19.46,11.36,28.59c-1.92,0.96-3.81,1.99-5.66,3.09
		c-5.68,3.37-10.98,7.45-15.73,12.14C49.22,103.14,47.87,104.58,46.57,106.06z M73.18,117.27c-7.3,0-14.13-1.96-20.01-5.39
		c4.96-6.09,10.73-11.57,17.12-16.35l0.92-0.69c0.31-0.23,0.62-0.45,0.93-0.67l0.47-0.34c0.16-0.11,0.31-0.22,0.47-0.33l0.95-0.65
		l0.47-0.33l0.48-0.32l0.07-0.05c4.34,7.63,9.29,14.85,14.78,21.48C84.77,115.96,79.13,117.27,73.18,117.27z M91.89,112.6
		c-5.57-6.67-10.59-13.96-14.96-21.68c0.32-0.21,0.64-0.42,0.97-0.62c2.62-1.63,5.31-3.17,8.07-4.61L87,85.17l0.52-0.27l0.52-0.26
		l1.05-0.52l1.06-0.5c0.35-0.17,0.71-0.34,1.07-0.5l1.07-0.49c0.36-0.16,0.72-0.31,1.08-0.47c0.36-0.16,0.72-0.32,1.08-0.47
		l1.09-0.46l1.1-0.45l0.55-0.22l0.55-0.21l1.11-0.43c1.49-0.56,2.99-1.1,4.5-1.64c-0.8,0.02-1.61,0.04-2.41,0.1
		c-0.81,0.05-1.61,0.13-2.41,0.2c-0.4,0.04-0.8,0.09-1.2,0.14c-0.2,0.02-0.4,0.05-0.6,0.07l-0.6,0.09c-0.4,0.06-0.8,0.12-1.2,0.18
		l-1.2,0.2c-0.4,0.07-0.8,0.15-1.19,0.22l-0.6,0.12c-0.2,0.04-0.4,0.08-0.6,0.12c-0.79,0.18-1.59,0.35-2.37,0.55
		c-1.58,0.38-3.14,0.83-4.71,1.31c-3.11,0.98-6.17,2.14-9.17,3.47c-0.36,0.16-0.73,0.33-1.09,0.5c-4.71-9.13-8.53-18.76-11.33-28.6
		c0.02-0.01,0.04-0.02,0.05-0.02c2.71-1.23,5.46-2.27,8.23-3.12c0.21,0.92,0.51,1.79,0.89,2.6c2.69,5.72,9.17,8.01,16.68,10.65
		c5.42,1.91,11.56,4.07,17.25,7.88c2.6,1.74,4.93,3.72,7.02,5.95C111.65,94.66,103.48,106.42,91.89,112.6z M107.04,73.11
		c-5.92-3.97-12.21-6.18-17.75-8.14c-3.59-1.26-6.99-2.46-9.68-3.94c-2.87-1.58-4.68-3.34-5.72-5.55c-0.33-0.71-0.59-1.46-0.76-2.27
		c4.26-1.15,8.51-1.83,12.62-2.01c3.87-0.17,7.57,0.11,10.98,0.84c3.3,0.7,6.33,1.82,9.03,3.33l0.26,0.15
		c0.12,0.07,0.37,0.21,0.37,0.21l0.18,0.1c4.05,6.23,6.41,13.67,6.41,21.66c0,0.13,0,0.26,0,0.4
		C111.16,76.13,109.19,74.54,107.04,73.11z"/>
</g>
<rect x="189.7" class="st0" width="1.3" height="188.96"/>
<g>
	<g>
		<path class="st0" d="M545.94,171.97c-6.85,0-12.69-1.62-17.51-4.85c-4.82-3.24-8.22-7.74-10.18-13.51
			c-1.97-5.77-2.07-12.4-0.29-19.89l20.37-87.94c0.63-2.67,0.63-4.44,0-5.33c-0.64-0.89-2.22-1.59-4.76-2.09l-3.81-0.76
			c-1.65-0.38-2.48-1.08-2.48-2.09c0-1.52,1.14-2.28,3.43-2.28h34.26c1.78,0,2.67,0.64,2.67,1.9c0,1.4-0.89,2.22-2.67,2.48
			l-5.33,0.76c-2.66,0.38-4.54,1.08-5.61,2.09c-1.08,1.02-1.94,2.85-2.57,5.52l-20.37,87.94c-2.28,9.64-1.62,17.13,2,22.46
			c3.62,5.33,9.23,7.99,16.85,7.99c8.25,0,14.91-2.66,19.99-7.99c5.07-5.33,8.69-12.82,10.85-22.46l19.42-84.13
			c1.65-7.11,0.38-10.91-3.81-11.42l-4.19-0.57c-1.78-0.25-2.67-1.01-2.67-2.28c0-0.76,0.38-1.33,1.14-1.71
			c0.76-0.38,1.59-0.57,2.48-0.57h27.41c1.65,0,2.47,0.64,2.47,1.9c0,1.27-1.02,2.09-3.04,2.48l-4.57,0.76
			c-4.44,0.76-7.49,4.51-9.14,11.23l-19.42,84.13c-2.66,11.55-7.49,20.81-14.47,27.79C565.42,168.49,556.6,171.97,545.94,171.97z"/>
		<path class="st0" d="M572.33,209.28c-1.65,0-2.47-0.7-2.47-2.09c0-1.27,1.02-2.03,3.04-2.28l2.67-0.38
			c2.54-0.38,4.41-1.11,5.61-2.19c1.21-1.08,2.13-3.02,2.76-5.81l25.32-109.26c0.25-1.01,0.1-1.81-0.47-2.38
			c-0.57-0.57-1.37-0.54-2.38,0.1c-1.27,0.64-2.47,1.3-3.62,2c-1.14,0.7-2.28,1.43-3.43,2.19c-1.14,0.76-2.09,0.99-2.86,0.67
			c-0.76-0.31-1.14-0.92-1.14-1.81c0-0.89,0.63-1.78,1.91-2.66c3.55-2.41,7.23-4.5,11.04-6.28c2.15-1.01,3.49-2.66,4-4.95
			l2.47-10.85c0.63-2.67,2.28-4,4.95-4h3.43c1.52,0,2.67,0.45,3.43,1.33c0.76,0.89,0.95,2.16,0.57,3.81l-1.33,5.52
			c-0.38,2.16,0.44,3.04,2.47,2.67c2.92-0.38,5.71-0.57,8.38-0.57c9.39,0,17.06,2.66,23.03,7.99c5.96,5.33,8.95,13.51,8.95,24.55
			c0,8.63-1.59,16.97-4.76,25.03s-7.36,15.26-12.56,21.6c-5.21,6.35-10.92,11.39-17.13,15.13c-6.22,3.75-12.44,5.62-18.65,5.62
			c-3.43,0-6.66-0.7-9.71-2.09c-1.9-0.89-3.04-0.38-3.43,1.52l-5.71,25.13c-0.64,2.79-0.6,4.63,0.09,5.52
			c0.7,0.89,2.25,1.52,4.66,1.9l4.95,0.76c2.28,0.38,3.43,1.14,3.43,2.28c0,1.52-1.08,2.28-3.23,2.28H572.33z M607.74,148.37
			c-2.29,12.56,0.44,18.84,8.18,18.84c4.44,0,8.95-1.87,13.52-5.62c4.57-3.74,8.82-8.76,12.75-15.04
			c3.93-6.28,7.11-13.35,9.52-21.22c2.41-7.87,3.62-15.92,3.62-24.17c0-8.5-1.84-14.62-5.52-18.37c-3.68-3.74-9.07-5.62-16.18-5.62
			c-6.35,0-9.96,2.16-10.85,6.47L607.74,148.37z"/>
	</g>
	<g>
		<path class="st0" d="M277.07,170.26c-1.78,0-2.66-0.63-2.66-1.9c0-1.4,1.27-2.29,3.81-2.67l3.8-0.57c2.79-0.38,4.73-1.05,5.81-2
			c1.08-0.95,1.87-2.76,2.38-5.43L316.1,45.77c0.5-2.16,0.57-3.81,0.19-4.95c-0.38-1.14-2.03-1.97-4.95-2.48l-3.81-0.76
			c-1.65-0.38-2.47-1.08-2.47-2.09c0-1.52,1.14-2.28,3.43-2.28h37.12c10.53,0,18.59,2.85,24.18,8.56
			c5.58,5.71,8.38,12.88,8.38,21.51c0,7.99-2.06,15.39-6.19,22.17c-4.12,6.79-9.83,12.28-17.13,16.46
			c-7.3,4.19-15.83,6.28-25.6,6.28H318c-2.03,0-3.36,1.08-4,3.23l-10.66,45.49c-0.64,2.79-0.48,4.7,0.47,5.71
			c0.95,1.02,3.01,1.71,6.19,2.09l9.14,1.14c1.14,0.13,1.71,0.76,1.71,1.9c0,1.65-1.14,2.47-3.43,2.47H277.07z M318.38,92.98
			c-0.76,3.3-0.42,5.87,1.05,7.71c1.46,1.84,4.54,2.76,9.23,2.76c6.34,0,11.77-1.33,16.28-4c4.5-2.67,8.18-6.12,11.04-10.37
			c2.85-4.25,4.95-8.82,6.28-13.71c1.33-4.88,2-9.55,2-13.99c0-6.98-1.84-12.63-5.52-16.94c-3.68-4.31-9.07-6.47-16.18-6.47
			c-7.74,0-12.18,2.54-13.32,7.61L318.38,92.98z"/>
		<path class="st0" d="M376.82,171.97c-4.7,0-7.9-2.12-9.61-6.38c-1.72-4.25-1.62-9.86,0.29-16.85l15.04-55.2
			c1.01-3.68,1.27-6.53,0.76-8.56c-0.51-2.03-1.65-3.05-3.43-3.05c-2.92,0-5.87,2.22-8.85,6.66c-2.98,4.44-5.55,10.6-7.71,18.47
			c-0.38,1.4-1.21,2.09-2.47,2.09c-1.78,0-2.35-1.27-1.71-3.81c2.92-10.66,6.76-18.87,11.52-24.65c4.76-5.77,9.99-8.66,15.7-8.66
			c4.57,0,7.61,2.09,9.14,6.28c1.52,4.19,1.27,9.9-0.76,17.13l-15.23,55.2c-2.41,8.76-1.59,13.13,2.48,13.13
			c2.54,0,5.45-1.71,8.75-5.14c3.3-3.43,6.76-8.12,10.37-14.09c3.62-5.96,7.2-12.75,10.76-20.37c3.55-7.61,6.79-15.61,9.71-23.98
			c2.92-8.38,5.33-16.69,7.23-24.93c0.38-1.4,1.27-2.09,2.66-2.09h7.61c1.78,0,2.47,0.83,2.09,2.47l-17.89,76.52
			c-1.4,5.96-0.32,8.95,3.23,8.95c5.33,0,10.91-8.06,16.75-24.18c0.5-1.65,1.39-2.47,2.66-2.47c0.76,0,1.3,0.32,1.62,0.95
			c0.31,0.64,0.29,1.46-0.1,2.48c-3.43,10.79-7.49,19.16-12.18,25.13c-4.7,5.97-9.64,8.95-14.85,8.95c-9.14,0-12.18-6.66-9.14-19.99
			l4.95-21.13c0.25-0.89,0.1-1.39-0.47-1.52c-0.57-0.13-1.05,0.19-1.43,0.95c-7.36,15.23-14.15,25.98-20.37,32.27
			C387.73,168.83,382.02,171.97,376.82,171.97z"/>
		<path class="st0" d="M449.15,172.16c-4.19,0-7.17-1.55-8.95-4.66c-1.78-3.11-1.84-8.22-0.19-15.32l24.17-103.74
			c0.63-2.28,0.67-3.87,0.1-4.76c-0.57-0.89-1.75-1.4-3.52-1.52l-5.71-0.57c-1.9-0.12-2.73-0.95-2.48-2.47
			c0.25-1.14,1.14-1.84,2.67-2.09c4.57-0.76,8.63-1.68,12.18-2.76c3.55-1.07,6.41-2.5,8.56-4.28c1.01-0.76,1.97-1.14,2.86-1.14
			c1.52,0,2.09,0.95,1.71,2.85l-28.17,120.68c-0.64,2.79-0.73,4.98-0.29,6.57c0.44,1.59,1.62,2.38,3.52,2.38
			c2.28,0,4.79-1.68,7.52-5.05c2.73-3.36,5.81-9.74,9.23-19.13c0.51-1.65,1.39-2.48,2.67-2.48c1.9,0,2.41,1.14,1.52,3.43
			c-2.66,8.63-5.61,15.45-8.85,20.46c-3.24,5.02-6.44,8.54-9.61,10.57C454.92,171.15,451.94,172.16,449.15,172.16z"/>
		<path class="st0" d="M478.08,172.16c-4.19,0-7.17-1.55-8.95-4.66c-1.78-3.11-1.84-8.22-0.19-15.32l24.17-103.74
			c0.63-2.28,0.67-3.87,0.1-4.76c-0.57-0.89-1.75-1.4-3.52-1.52l-5.71-0.57c-1.9-0.12-2.73-0.95-2.48-2.47
			c0.25-1.14,1.14-1.84,2.67-2.09c4.57-0.76,8.63-1.68,12.18-2.76c3.55-1.07,6.41-2.5,8.56-4.28c1.01-0.76,1.97-1.14,2.86-1.14
			c1.52,0,2.09,0.95,1.71,2.85l-28.17,120.68c-0.64,2.79-0.73,4.98-0.29,6.57c0.44,1.59,1.62,2.38,3.52,2.38
			c2.28,0,4.79-1.68,7.52-5.05c2.73-3.36,5.81-9.74,9.23-19.13c0.51-1.65,1.39-2.48,2.67-2.48c1.9,0,2.41,1.14,1.52,3.43
			c-2.66,8.63-5.61,15.45-8.85,20.46c-3.24,5.02-6.44,8.54-9.61,10.57C483.85,171.15,480.87,172.16,478.08,172.16z"/>
	</g>
	<g>
		<path class="st0" d="M292.74,98.28h-7.81l3.81-16.55h8.36l1.73-6.57h-8.52l6.18-27.06h-7.36l-6.18,27.06h-9.33l6.31-27.06h-7.49
			l-6.18,27.06h-9.2l-1.52,6.57h9.14l-3.81,16.55h-9.17l-1.52,6.57h9.12l-6.31,27.07h7.49l6.18-27.07h9.2l-6.18,27.07h7.36
			l6.31-27.07h7.65L292.74,98.28z M277.45,98.28h-9.2l3.81-16.55h9.2L277.45,98.28z"/>
	</g>
</g>
</svg>
